<?xml version="1.0" encoding="UTF-8"?>
<svg xmlns="http://www.w3.org/2000/svg" xmlns:xlink="http://www.w3.org/1999/xlink" width="1498pt" height="407pt" viewBox="0 0 1498 407" version="1.1">
<g id="surface1">
<path style=" stroke:none;fill-rule:evenodd;fill:rgb(70.980392%,18.039216%,19.215686%);fill-opacity:1;" d="M 440.621094 300.960938 L 440.621094 116.574219 L 464.320312 116.574219 L 576.964844 264.964844 L 576.964844 116.574219 L 599.492188 116.574219 L 599.492188 300.960938 L 575.792969 300.960938 L 463.152344 151.109375 L 463.152344 300.960938 Z M 782.9375 293.644531 C 768.015625 299.207031 751.925781 302.132812 734.957031 302.132812 C 668.25 302.132812 634.894531 270.230469 634.894531 206.132812 C 634.894531 145.550781 667.078125 115.109375 731.445312 115.109375 C 749.878906 115.109375 767.140625 117.746094 782.9375 122.71875 L 782.9375 143.207031 C 767.140625 137.0625 750.753906 134.132812 734.078125 134.132812 C 683.753906 134.132812 658.59375 158.132812 658.59375 205.546875 C 658.59375 256.769531 683.460938 282.230469 732.910156 282.230469 C 740.808594 282.230469 749.585938 281.058594 759.242188 279.011719 L 759.242188 217.257812 L 782.9375 217.257812 Z M 820.972656 229.839844 L 820.972656 116.574219 L 844.671875 116.574219 L 844.671875 229.839844 C 844.671875 265.253906 862.226562 283.109375 897.628906 283.109375 C 932.738281 283.109375 950.585938 265.253906 950.585938 229.839844 L 950.585938 116.574219 L 974.285156 116.574219 L 974.285156 229.839844 C 974.285156 278.132812 948.832031 302.425781 897.628906 302.425781 C 846.429688 302.425781 820.972656 278.132812 820.972656 229.839844 Z M 1040.40625 116.574219 L 1040.40625 281.644531 L 1136.957031 281.644531 L 1136.957031 300.960938 L 1016.710938 300.960938 L 1016.710938 116.574219 Z M 1171.191406 300.960938 L 1146.320312 300.960938 L 1237.898438 92.28125 L 1329.476562 300.960938 L 1303.144531 300.960938 L 1279.445312 243.011719 L 1218.585938 243.011719 L 1225.023438 223.695312 L 1271.542969 223.695312 L 1237.019531 140.28125 Z M 1354.929688 300.960938 L 1354.929688 116.574219 L 1433.632812 116.574219 C 1468.742188 116.574219 1486.296875 131.207031 1486.296875 160.769531 C 1486.296875 184.769531 1469.035156 202.621094 1434.804688 214.035156 L 1498 300.960938 L 1466.695312 300.960938 L 1408.179688 218.132812 L 1408.179688 202.621094 C 1443.289062 197.0625 1461.136719 183.597656 1461.136719 161.9375 C 1461.136719 144.964844 1451.480469 136.476562 1431.878906 136.476562 L 1379.214844 136.476562 L 1379.214844 300.960938 Z M 1354.929688 300.960938 "/>
<path style=" stroke:none;fill-rule:evenodd;fill:rgb(88.627451%,19.607843%,21.568627%);fill-opacity:1;" d="M 0 67.402344 L 188.710938 0.0859375 L 382.398438 66.234375 L 351.09375 315.890625 L 188.710938 405.742188 L 28.964844 317.058594 Z M 0 67.402344 "/>
<path style=" stroke:none;fill-rule:evenodd;fill:rgb(70.980392%,18.039216%,19.215686%);fill-opacity:1;" d="M 382.398438 66.234375 L 188.710938 0.0859375 L 188.710938 405.742188 L 351.09375 315.890625 Z M 382.398438 66.234375 "/>
<path style=" stroke:none;fill-rule:evenodd;fill:rgb(100%,100%,100%);fill-opacity:1;" d="M 189.003906 47.5 L 71.390625 309.15625 L 115.277344 308.28125 L 138.972656 249.160156 L 244.011719 249.160156 L 269.757812 308.863281 L 311.59375 309.742188 Z M 189.296875 131.5 L 229.089844 214.621094 L 154.480469 214.621094 Z M 189.296875 131.5 "/>
</g>
</svg>
